<?xml version="1.0" standalone="no"?>
<!DOCTYPE svg PUBLIC "-//W3C//DTD SVG 20010904//EN"
 "http://www.w3.org/TR/2001/REC-SVG-20010904/DTD/svg10.dtd">
<svg version="1.0" xmlns="http://www.w3.org/2000/svg"
 width="100.000000pt" height="100.000000pt" viewBox="0 0 100.000000 100.000000"
 preserveAspectRatio="xMidYMid meet">
<metadata>
Created by potrace 1.10, written by Peter Selinger 2001-2011
</metadata>
<g transform="translate(0.000000,100.000000) scale(0.050000,-0.050000)"
fill="#ffffff" stroke="none">
<path d="M1010 1946 c-181 -24 -470 -135 -470 -181 0 -19 12 -26 35 -18 19 7
116 41 215 76 167 60 199 65 435 65 167 1 253 8 249 21 -14 40 -279 62 -464
37z"/>
<path d="M1070 1799 c-227 -23 -599 -194 -707 -325 -63 -77 7 -67 123 19 339
250 703 319 1055 201 96 -33 156 -44 169 -32 72 70 -367 164 -640 137z"/>
<path d="M880 1614 c-223 -75 -512 -306 -585 -467 -37 -82 6 -80 70 3 357 462
797 569 1308 320 162 -80 167 -81 167 -41 0 39 -257 161 -420 200 -188 44
-384 39 -540 -15z"/>
<path d="M970 1493 c-205 -68 -401 -206 -513 -360 -106 -146 -44 -159 67 -13
301 397 838 451 1230 123 156 -131 203 -102 54 34 -221 201 -594 297 -838 216z"/>
<path d="M1090 1356 c-213 -28 -530 -234 -530 -346 0 -50 26 -35 115 68 296
344 885 285 1118 -111 44 -76 107 -117 107 -71 0 38 -121 201 -208 281 -165
151 -362 209 -602 179z"/>
<path d="M1003 1190 c-116 -36 -228 -117 -293 -210 -88 -128 -37 -136 73 -13
129 146 266 201 462 188 271 -19 436 -190 505 -521 15 -76 61 -57 55 22 -31
389 -425 652 -802 534z"/>
<path d="M1080 1061 c-184 -56 -373 -267 -332 -372 17 -44 45 -21 59 50 19 94
141 214 256 252 304 101 576 -147 577 -525 0 -83 28 -126 61 -93 30 30 -19
291 -79 419 -100 214 -337 332 -542 269z"/>
<path d="M294 943 c-78 -52 -110 -104 -127 -205 -7 -48 -26 -99 -40 -114 -35
-35 -38 -385 -3 -420 33 -33 579 -33 612 0 38 38 33 414 -6 429 -17 6 -30 36
-30 71 0 210 -238 349 -406 239z m202 -76 c52 -14 104 -101 104 -176 0 -51 -1
-51 -173 -51 l-172 0 12 75 c19 122 111 184 229 152z"/>
<path d="M1018 875 c-92 -62 -138 -160 -138 -295 0 -115 85 -468 124 -515 50
-60 52 15 4 165 -130 410 -66 630 182 630 169 0 241 -75 271 -284 23 -169 79
-336 112 -336 35 0 34 38 -3 127 -16 39 -39 136 -50 216 -43 297 -284 437
-502 292z"/>
<path d="M1090 732 c-110 -110 -35 -682 91 -682 35 0 34 7 -31 165 -102 247
-82 505 39 505 70 0 107 -48 121 -155 27 -201 108 -425 153 -425 25 0 18 39
-39 210 -22 66 -50 174 -62 240 -33 184 -162 252 -272 142z"/>
<path d="M1170 661 c-45 -74 96 -581 162 -581 38 0 35 20 -21 141 -27 58 -59
184 -72 282 -23 166 -40 204 -69 158z"/>
<path d="M780 283 c0 -130 53 -242 88 -186 11 18 -64 263 -80 263 -4 0 -8 -35
-8 -77z"/>
</g>
</svg>
