<?xml version="1.0" encoding="utf-8"?>
<svg version="1.2"
  xmlns="http://www.w3.org/2000/svg" viewBox="0 0 16 16" width="16" height="16">
  <defs>
    <linearGradient id="gradient" x1="0%" y1="0%" x2="100%" y2="0%">
      <stop offset="0" stop-color="#3686E2"/>
      <stop offset="1" stop-color="#56E18B"/>
    </linearGradient>
    <mask id="keyhole-mask">
      <rect width="100%" height="100%" fill="white"/>
      <g transform="matrix(1.175631, 0, 0, 1.175631, -1.258102, 1.949506)">
        <circle cx="4" cy="9" r="0.455" fill="black"/>
        <rect x="3.75" y="9" width="0.5" height="1" fill="black" rx="0.105" ry="0.105"/>
      </g>
    </mask>
  </defs>
  <style>
    .fingerprint-and-lock { fill: url(#gradient); }
  </style>
  <g mask="url(#keyhole-mask)">
    <path class="fingerprint-and-lock" d="m8.1 0.4c-1.5 0.2-3.8 1.1-3.8 1.5q0 0.2 0.3 0.1c0.2 0 0.9-0.3 1.7-0.6 1.4-0.5 1.6-0.5 3.5-0.5 1.3 0 2-0.1 2-0.2-0.1-0.3-2.2-0.5-3.7-0.3z"/>
    <path class="fingerprint-and-lock" d="m8.6 1.6c-1.9 0.2-4.8 1.6-5.7 2.6-0.5 0.6 0.1 0.5 1-0.1 2.7-2 5.6-2.6 8.4-1.7 0.8 0.3 1.3 0.4 1.4 0.3 0.6-0.6-3-1.3-5.1-1.1z"/>
    <path class="fingerprint-and-lock" d="m7 3.1c-1.7 0.6-4.1 2.4-4.6 3.7-0.3 0.7 0 0.7 0.5 0 2.9-3.7 6.4-4.6 10.5-2.6 1.3 0.7 1.3 0.7 1.3 0.4 0-0.3-2-1.3-3.3-1.6-1.5-0.4-3.1-0.3-4.4 0.1z"/>
    <path class="fingerprint-and-lock" d="m7.8 4.1c-1.7 0.5-3.2 1.6-4.1 2.8-0.9 1.2-0.4 1.3 0.5 0.1 2.4-3.1 6.7-3.6 9.8-0.9 1.3 1 1.7 0.8 0.5-0.3-1.8-1.6-4.8-2.4-6.7-1.7z"/>
    <path class="fingerprint-and-lock" d="m8.7 5.2c-1.7 0.2-4.2 1.8-4.2 2.7 0 0.4 0.2 0.3 0.9-0.5 2.4-2.8 7.1-2.3 8.9 0.9 0.4 0.6 0.9 0.9 0.9 0.5 0-0.3-1-1.6-1.7-2.2-1.3-1.2-2.9-1.7-4.8-1.4z"/>
    <path class="fingerprint-and-lock" d="m8 6.5c-0.9 0.3-1.8 0.9-2.3 1.7-0.7 1-0.3 1 0.6 0.1 1-1.2 2.1-1.6 3.7-1.5 2.1 0.1 3.4 1.5 4 4.1 0.1 0.6 0.5 0.5 0.4-0.1-0.2-3.2-3.4-5.3-6.4-4.3z"/>
    <path class="fingerprint-and-lock" d="m8.6 7.5c-1.4 0.5-2.9 2.1-2.6 3 0.1 0.3 0.3 0.2 0.5-0.4 0.1-0.8 1.1-1.7 2-2 2.4-0.8 4.6 1.1 4.6 4.2 0 0.6 0.2 1 0.5 0.7 0.2-0.2-0.1-2.3-0.6-3.3-0.8-1.7-2.7-2.7-4.4-2.2z"/>
    <path class="fingerprint-and-lock" d="m2.4 8.5c-0.7 0.4-0.9 0.8-1.1 1.6 0 0.4-0.2 0.8-0.3 0.9-0.3 0.3-0.3 3.1 0 3.4 0.3 0.2 4.6 0.2 4.9 0 0.3-0.3 0.3-3.3-0.1-3.5-0.1 0-0.2-0.3-0.2-0.5 0-1.7-1.9-2.8-3.2-1.9zm1.6 0.6c0.4 0.1 0.8 0.8 0.8 1.4 0 0.4 0 0.4-1.4 0.4h-1.4l0.1-0.6c0.2-1 0.9-1.5 1.9-1.2z"/>
    <path class="fingerprint-and-lock" d="m8.1 9q-1.1 0.7-1.1 2.4c0 0.9 0.7 3.7 1 4.1 0.4 0.5 0.4-0.1 0.1-1.3-1.1-3.3-0.6-5.1 1.4-5.1 1.4 0 1.9 0.6 2.2 2.3 0.2 1.3 0.6 2.7 0.9 2.7 0.3 0 0.3-0.3 0-1-0.2-0.3-0.4-1.1-0.4-1.8-0.4-2.3-2.3-3.5-4.1-2.3z"/>
    <path class="fingerprint-and-lock" d="m8.7 10.1c-0.9 0.9-0.3 5.5 0.7 5.5 0.3 0 0.3-0.1-0.2-1.3-0.8-2-0.7-4.1 0.3-4.1 0.6 0 0.9 0.4 1 1.3 0.2 1.6 0.8 3.4 1.2 3.4 0.2 0 0.1-0.3-0.3-1.7-0.2-0.5-0.4-1.4-0.5-1.9-0.3-1.5-1.3-2-2.2-1.2z"/>
    <path class="fingerprint-and-lock" d="m9.4 10.7c-0.4 0.6 0.7 4.7 1.3 4.7 0.3 0 0.2-0.2-0.2-1.2-0.2-0.4-0.5-1.4-0.6-2.2-0.2-1.4-0.3-1.7-0.5-1.3z"/>
    <path class="fingerprint-and-lock" d="m6.2 13.7c0 1.1 0.5 2 0.7 1.5 0.1-0.1-0.5-2.1-0.6-2.1 0 0-0.1 0.3-0.1 0.6z"/>
  </g>
</svg>